<svg width="16" height="16" viewBox="0 0 16 16" fill="none" xmlns="http://www.w3.org/2000/svg">
<path d="M2.28571 11.7371V0.571435C2.28571 0.413435 2.15771 0.285721 2 0.285721C1.84229 0.285721 1.71429 0.413435 1.71429 0.571435V11.7371C0.746571 11.8766 0 12.7089 0 13.7143C0 14.8169 0.897143 15.7143 2 15.7143C3.10286 15.7143 4 14.8169 4 13.7143C4 12.7089 3.25343 11.8766 2.28571 11.7371ZM2 15.1429C1.21229 15.1429 0.571429 14.502 0.571429 13.7143C0.571429 12.9266 1.21229 12.2857 2 12.2857C2.78771 12.2857 3.42857 12.9266 3.42857 13.7143C3.42857 14.502 2.78771 15.1429 2 15.1429Z" fill="#626262"/>
<path d="M8.28571 5.91286V0.571435C8.28571 0.413435 8.15771 0.285721 8 0.285721C7.84229 0.285721 7.71429 0.413435 7.71429 0.571435V5.89486C6.68514 6.00801 5.88171 6.88229 5.88171 7.94086C5.88171 8.99943 6.68514 9.87372 7.71429 9.98686V15.4286C7.71429 15.5866 7.84229 15.7143 8 15.7143C8.15771 15.7143 8.28571 15.5866 8.28571 15.4286V9.96886C9.25714 9.80401 10 8.95858 10 7.94086C10 6.92315 9.25714 6.07772 8.28571 5.91286ZM7.94086 9.42858C7.12057 9.42858 6.45314 8.76115 6.45314 7.94086C6.45314 7.12058 7.12029 6.45315 7.94086 6.45315C8.76143 6.45315 9.42857 7.12058 9.42857 7.94086C9.42857 8.76115 8.76114 9.42858 7.94086 9.42858Z" fill="#626262"/>
<path d="M16 2.28572C16 1.18315 15.1029 0.285721 14 0.285721C12.8971 0.285721 12 1.18315 12 2.28572C12 3.29115 12.7466 4.12344 13.7143 4.26286V15.4286C13.7143 15.5866 13.8423 15.7143 14 15.7143C14.1577 15.7143 14.2857 15.5866 14.2857 15.4286V4.26286C15.2534 4.12344 16 3.29115 16 2.28572ZM14 3.71429C13.2123 3.71429 12.5714 3.07343 12.5714 2.28572C12.5714 1.49801 13.2123 0.857149 14 0.857149C14.7877 0.857149 15.4286 1.49801 15.4286 2.28572C15.4286 3.07343 14.7877 3.71429 14 3.71429Z" fill="#626262"/>
</svg>
