<svg width="60" height="60" viewBox="0 0 60 60" fill="none" xmlns="http://www.w3.org/2000/svg">
<path fill-rule="evenodd" clip-rule="evenodd" d="M43.299 42.8571C44.0782 35.0588 44.8574 26.9916 44.4678 22.2857C34.598 27.5294 28.6242 32.2353 26.6762 34.1176C21.7414 38.8235 19.5336 41.2437 27.845 41.916C33.0396 42.4538 38.2343 42.7227 43.299 42.8571Z" fill="#FFBC00"/>
<path fill-rule="evenodd" clip-rule="evenodd" d="M0.779221 39.4286C0.519481 38.5687 0.25974 37.7089 0 36.8491C15.1948 27.8823 27.7922 22.969 35.3247 20.2667C39.4805 18.7927 41.6883 18.1786 42.8571 19.8982C24.6753 25.6713 10 33.4098 5.97403 35.8664C4.80519 36.6034 2.46753 37.9546 0.779221 39.4286Z" fill="#FFBC00"/>
<path fill-rule="evenodd" clip-rule="evenodd" d="M56.5714 44.5714C51.4666 53.8033 41.3878 60 29.8691 60C18.4814 60 8.66434 53.9297 3.42859 45.0773C4.60663 45.2037 6.17736 45.3302 8.14076 45.4567C23.1935 45.5831 40.3406 45.0773 56.5714 44.5714Z" fill="#FFBC00"/>
<path fill-rule="evenodd" clip-rule="evenodd" d="M56.9895 17.1429C58.8711 21.1486 60 25.6712 60 30.4523C60 34.8457 59.1219 39.1098 57.3658 42.8571C53.101 42.8571 48.8362 42.8571 44.5714 42.7279C46.7038 34.9749 49.0871 27.7387 50.3414 20.1149C52.4739 19.2103 54.6063 18.1766 56.9895 17.1429Z" fill="#FFBC00"/>
<path fill-rule="evenodd" clip-rule="evenodd" d="M50.2041 8.57143C52.6531 10.6452 54.7755 12.9954 56.5714 15.4839C54.2857 16.0369 52 16.5899 49.7143 17.1429C50.0408 15.0691 50.2041 12.9954 50.3674 10.7834C50.3674 9.95392 50.3674 9.12442 50.2041 8.57143Z" fill="#FFBC00"/>
<path fill-rule="evenodd" clip-rule="evenodd" d="M29.8552 0C36.6756 0 42.9812 2.29421 48 6.1179C46.4558 6.24535 44.3968 7.265 41.437 8.66702C30.37 14.1476 16.2145 21.6676 0.386059 34.2857C0.128686 32.7562 0 31.2268 0 29.5698C0 13.2554 13.3834 0 29.8552 0Z" fill="#FFBC00"/>
</svg>
